0
SECTION
2
HEADER
9
$ACADVER
1
AC1009
9
$INSUNITS
70
4
0
ENDSEC
0
SECTION
2
TABLES
0
TABLE
2
LAYER
70
8
0
LAYER
2
00_STAGE
70
0
62
7
6
CONTINUOUS
0
LAYER
2
10_SCREENS_OPEN
70
0
62
8
6
CONTINUOUS
0
LAYER
2
11_SCREENS_30
70
0
62
7
6
CONTINUOUS
0
LAYER
2
20_ROTATION_AXES
70
0
62
5
6
CONTINUOUS
0
LAYER
2
30_PERFORMER_ZONES
70
0
62
9
6
CONTINUOUS
0
LAYER
2
40_DIMENSIONS
70
0
62
2
6
CONTINUOUS
0
LAYER
2
50_NOTES
70
0
62
7
6
CONTINUOUS
0
LAYER
2
60_CENTERLINES
70
0
62
8
6
CONTINUOUS
0
ENDTAB
0
ENDSEC
0
SECTION
2
ENTITIES
0
LINE
8
00_STAGE
10
-9000
20
1000
30
0
11
9000
21
1000
31
0
0
LINE
8
00_STAGE
10
9000
20
1000
30
0
11
9000
21
-9000
31
0
0
LINE
8
00_STAGE
10
9000
20
-9000
30
0
11
-9000
21
-9000
31
0
0
LINE
8
00_STAGE
10
-9000
20
-9000
30
0
11
-9000
21
1000
31
0
0
LINE
8
60_CENTERLINES
10
0
20
1000
30
0
11
0
21
-9000
31
0
0
LINE
8
60_CENTERLINES
10
-8200
20
0
30
0
11
8200
21
0
31
0
0
LINE
8
60_CENTERLINES
10
-8200
20
-500
30
0
11
8200
21
-500
31
0
0
LINE
8
60_CENTERLINES
10
-8200
20
-1000
30
0
11
8200
21
-1000
31
0
0
LINE
8
60_CENTERLINES
10
-8200
20
-1500
30
0
11
8200
21
-1500
31
0
0
LINE
8
10_SCREENS_OPEN
10
-7500
20
-1500
30
0
11
-6000
21
-1500
31
0
0
LINE
8
10_SCREENS_OPEN
10
-5500
20
-1000
30
0
11
-4000
21
-1000
31
0
0
LINE
8
10_SCREENS_OPEN
10
-3500
20
-500
30
0
11
-2000
21
-500
31
0
0
LINE
8
10_SCREENS_OPEN
10
-1500
20
0
30
0
11
1500
21
0
31
0
0
LINE
8
10_SCREENS_OPEN
10
2000
20
-500
30
0
11
3500
21
-500
31
0
0
LINE
8
10_SCREENS_OPEN
10
4000
20
-1000
30
0
11
5500
21
-1000
31
0
0
LINE
8
10_SCREENS_OPEN
10
6000
20
-1500
30
0
11
7500
21
-1500
31
0
0
LINE
8
11_SCREENS_30
10
-7399.519
20
-1875
30
0
11
-6100.481
21
-1125
31
0
0
LINE
8
11_SCREENS_30
10
-5399.519
20
-1375
30
0
11
-4100.481
21
-625
31
0
0
LINE
8
11_SCREENS_30
10
-3399.519
20
-875
30
0
11
-2100.481
21
-125
31
0
0
LINE
8
11_SCREENS_30
10
-1500
20
0
30
0
11
1500
21
0
31
0
0
LINE
8
11_SCREENS_30
10
2100.481
20
-125
30
0
11
3399.519
21
-875
31
0
0
LINE
8
11_SCREENS_30
10
4100.481
20
-625
30
0
11
5399.519
21
-1375
31
0
0
LINE
8
11_SCREENS_30
10
6100.481
20
-1125
30
0
11
7399.519
21
-1875
31
0
0
LINE
8
20_ROTATION_AXES
10
-6830
20
-1500
30
0
11
-6670
21
-1500
31
0
0
LINE
8
20_ROTATION_AXES
10
-6750
20
-1580
30
0
11
-6750
21
-1420
31
0
0
LINE
8
20_ROTATION_AXES
10
-4830
20
-1000
30
0
11
-4670
21
-1000
31
0
0
LINE
8
20_ROTATION_AXES
10
-4750
20
-1080
30
0
11
-4750
21
-920
31
0
0
LINE
8
20_ROTATION_AXES
10
-2830
20
-500
30
0
11
-2670
21
-500
31
0
0
LINE
8
20_ROTATION_AXES
10
-2750
20
-580
30
0
11
-2750
21
-420
31
0
0
LINE
8
20_ROTATION_AXES
10
-80
20
0
30
0
11
80
21
0
31
0
0
LINE
8
20_ROTATION_AXES
10
0
20
-80
30
0
11
0
21
80
31
0
0
LINE
8
20_ROTATION_AXES
10
2670
20
-500
30
0
11
2830
21
-500
31
0
0
LINE
8
20_ROTATION_AXES
10
2750
20
-580
30
0
11
2750
21
-420
31
0
0
LINE
8
20_ROTATION_AXES
10
4670
20
-1000
30
0
11
4830
21
-1000
31
0
0
LINE
8
20_ROTATION_AXES
10
4750
20
-1080
30
0
11
4750
21
-920
31
0
0
LINE
8
20_ROTATION_AXES
10
6670
20
-1500
30
0
11
6830
21
-1500
31
0
0
LINE
8
20_ROTATION_AXES
10
6750
20
-1580
30
0
11
6750
21
-1420
31
0
0
LINE
8
30_PERFORMER_ZONES
10
-6100
20
-6500
30
0
11
-2900
21
-6500
31
0
0
LINE
8
30_PERFORMER_ZONES
10
-2900
20
-6500
30
0
11
-2900
21
-3900
31
0
0
LINE
8
30_PERFORMER_ZONES
10
-2900
20
-3900
30
0
11
-6100
21
-3900
31
0
0
LINE
8
30_PERFORMER_ZONES
10
-6100
20
-3900
30
0
11
-6100
21
-6500
31
0
0
LINE
8
30_PERFORMER_ZONES
10
-2000
20
-6600
30
0
11
2000
21
-6600
31
0
0
LINE
8
30_PERFORMER_ZONES
10
2000
20
-6600
30
0
11
2000
21
-3400
31
0
0
LINE
8
30_PERFORMER_ZONES
10
2000
20
-3400
30
0
11
-2000
21
-3400
31
0
0
LINE
8
30_PERFORMER_ZONES
10
-2000
20
-3400
30
0
11
-2000
21
-6600
31
0
0
LINE
8
30_PERFORMER_ZONES
10
2900
20
-6500
30
0
11
6100
21
-6500
31
0
0
LINE
8
30_PERFORMER_ZONES
10
6100
20
-6500
30
0
11
6100
21
-3900
31
0
0
LINE
8
30_PERFORMER_ZONES
10
6100
20
-3900
30
0
11
2900
21
-3900
31
0
0
LINE
8
30_PERFORMER_ZONES
10
2900
20
-3900
30
0
11
2900
21
-6500
31
0
0
TEXT
8
50_NOTES
10
-8800
20
700
30
0
40
180
1
COT A101 STAGE FLOOR PLAN v1.0 - DESIGN DEVELOPMENT
50
0
0
TEXT
8
50_NOTES
10
-8800
20
450
30
0
40
120
1
UNITS mm | ORIGIN centre S4 | +X stage right | +Y upstage | audience is -Y
50
0
0
TEXT
8
50_NOTES
10
-6950
20
-2050
30
0
40
120
1
S1
50
0
0
TEXT
8
50_NOTES
10
-4950
20
-1550
30
0
40
120
1
S2
50
0
0
TEXT
8
50_NOTES
10
-2950
20
-1050
30
0
40
120
1
S3
50
0
0
TEXT
8
50_NOTES
10
-150
20
250
30
0
40
120
1
S4 FIXED
50
0
0
TEXT
8
50_NOTES
10
2550
20
-1050
30
0
40
120
1
S5
50
0
0
TEXT
8
50_NOTES
10
4550
20
-1550
30
0
40
120
1
S6
50
0
0
TEXT
8
50_NOTES
10
6550
20
-2050
30
0
40
120
1
S7
50
0
0
TEXT
8
50_NOTES
10
-5300
20
-5250
30
0
40
110
1
BASS - STAGE LEFT - PROVISIONAL ZONE
50
0
0
TEXT
8
50_NOTES
10
-1200
20
-5000
30
0
40
110
1
DRUMS - CENTRE - PROVISIONAL ZONE
50
0
0
TEXT
8
50_NOTES
10
3700
20
-5250
30
0
40
110
1
KEYS - STAGE RIGHT - PROVISIONAL ZONE
50
0
0
TEXT
8
50_NOTES
10
-1500
20
-8750
30
0
40
160
1
AUDIENCE / DOWNSTAGE
50
0
0
TEXT
8
50_NOTES
10
1500
20
-8200
30
0
40
105
1
LOCKED: SIDE 1500x5000; CENTRE 3000x5000; OPEN GAP 500; DS STEPS 500/1000/1500; LEFT +30deg / RIGHT -30deg; NO TILT.
50
0
0
TEXT
8
50_NOTES
10
1500
20
-8400
30
0
40
105
1
SUPPLIER SCOPE: MOTOR BASES, PIVOTS, STRUCTURE, LOADS, RIGGING/BALLAST, LIMITS, INTERLOCKS, ENGINEERING AND COMPLIANCE.
50
0
0
TEXT
8
50_NOTES
10
1500
20
-8600
30
0
40
105
1
STATUS: DESIGN DEVELOPMENT / NOT FOR CONSTRUCTION.
50
0
0
ENDSEC
0
EOF
